# xmcd
#
# Track frame offsets: 
#        150
#        16800
#        31337
#        46722
#
# Disc length: 853 seconds
#
# Revision: 0
# Processed by: cddbd v1.5.2PL0 Copyright (c) Steve Scherf et al.
# Submitted via: ExactAudioCopy v0.95b4
#
DISCID=20035304
DTITLE=Ingela Söderlund - Startin' Over Again
DYEAR=1993
DGENRE=Country
TTITLE0=Startin' Over Again
TTITLE1=When The Sun Goes Down
TTITLE2=Maybe Your Babys Got The Blues
TTITLE3=Don't Know Much About Love
EXTD=
EXTT0=
EXTT1=
EXTT2=
EXTT3=
PLAYORDER=
